<svg width="500" height="473" viewBox="0 0 500 473" fill="none" xmlns="http://www.w3.org/2000/svg">
<path d="M237.997 296.491C240.335 296.491 242.231 294.688 242.231 292.464C242.231 290.24 240.335 288.437 237.997 288.437H210.125C207.787 288.437 205.892 290.239 205.892 292.464C205.892 294.687 207.787 296.491 210.125 296.491H237.997Z" fill="#465C69"/>
<path d="M378.237 161.443C369.371 162.811 360.452 165.497 351.741 169.356V134.989C351.741 118.453 337.599 105 320.218 105H137.534C117.743 105 102.75 122.247 106.608 140.829C107.931 147.197 113.892 151.819 120.783 151.819H160.592V266.864C160.592 269.088 162.487 270.891 164.825 270.891C167.163 270.891 169.059 269.088 169.059 266.864C169.179 121.088 169.047 132.926 168.77 130.998C167.78 123.955 164.221 117.675 159.01 113.054H320.219C332.933 113.054 343.277 122.894 343.277 134.989V173.509C331.95 179.623 321.669 187.445 312.829 196.139H210.125C207.787 196.139 205.892 197.942 205.892 200.166C205.892 202.39 207.787 204.193 210.125 204.193H305.281C300.636 209.574 296.525 215.2 293.015 220.963H210.125C207.787 220.963 205.892 222.766 205.892 224.99C205.892 227.214 207.787 229.017 210.125 229.017H288.546C285.778 234.517 283.605 239.886 281.882 245.786H210.125C207.787 245.786 205.892 247.589 205.892 249.814C205.892 252.038 207.787 253.841 210.125 253.841H279.938C279.15 258.026 278.721 262.173 278.66 266.242L262.632 281.489C259.957 284.033 261.888 288.363 265.626 288.363C266.709 288.363 267.793 287.97 268.619 287.184L284.64 271.943C305.51 271.652 326.427 263.051 343.276 251.462V319.627H232.468C222.747 319.627 215.122 327.209 215.172 336.317V336.338V336.34C214.967 349.134 204.467 358.392 192.115 358.392C179.401 358.392 169.057 348.553 169.057 336.457V282.974C169.057 280.75 167.162 278.947 164.824 278.947C162.486 278.947 160.591 280.75 160.591 282.974V336.457C160.591 352.992 174.729 366.443 192.109 366.446H192.114H340.496C349.017 366.446 357.367 363.112 363.403 357.3C369.374 351.551 372.607 344.018 372.507 336.089C372.382 326.405 364.376 319.627 355.142 319.627H351.741V245.126C361.223 237.45 369.582 228.613 376.401 219.122C377.72 217.285 377.225 214.779 375.295 213.525C373.364 212.269 370.731 212.741 369.411 214.577C352.091 238.683 323.364 258.999 293.88 263.151L361.735 198.6C363.388 197.028 363.388 194.478 361.735 192.905C360.082 191.332 357.402 191.332 355.748 192.905L287.885 257.464C294.178 216.736 336.825 175.995 379.594 169.393C383.58 168.777 387.101 172.113 386.452 175.917C385.033 184.234 382.074 192.749 377.659 201.226C376.62 203.218 377.477 205.635 379.572 206.622C381.666 207.61 384.206 206.794 385.244 204.802C390.036 195.604 393.255 186.32 394.809 177.208C396.384 167.974 387.941 159.945 378.237 161.443ZM120.782 143.765C117.923 143.765 115.455 141.874 114.914 139.268C112.123 125.835 122.834 113.225 137.244 113.056L144.274 114.013C153.869 116.807 160.591 125.37 160.591 134.989V143.765H120.782ZM364.034 335.857C364.036 335.911 364.042 336.239 364.041 336.185C364.197 348.458 353.264 358.39 340.496 358.39H213.601C219.885 352.808 223.523 345.348 223.638 336.295C223.612 331.575 227.497 327.679 232.467 327.679H355.142C359.919 327.68 363.908 331.348 364.034 335.857Z" fill="#465C69"/>
<path d="M224 336.5C224 336.5 223 329 233 327.5C243 326 355.5 327.5 355.5 327.5L363.5 331C363.5 331 366.5 336 363.5 344.5C360.5 353 356.5 354.5 348 358C339.5 361.5 214.5 358 214.5 358L218.5 353L224 336.5Z" fill="#465C69" stroke="#465C69" stroke-width="10"/>
<path d="M238.013 168.065C240.351 168.065 242.247 166.261 242.247 164.037C242.247 161.813 240.351 160.01 238.013 160.01H210.141C207.803 160.01 205.908 161.813 205.908 164.037C205.908 166.261 207.803 168.065 210.141 168.065H238.013Z" fill="#465C69"/>
<path d="M496 236.391C496 364.529 386.076 468.782 250 468.782C113.924 468.782 4 364.529 4 236.391C4 108.253 113.924 4 250 4C386.076 4 496 108.253 496 236.391Z" stroke="#465C69" stroke-width="8"/>
<path d="M113.5 126.5C116.827 118.277 119.545 114.407 129 111.5L133 111.5C137.07 108.254 140.127 107.92 142.5 110.5C152.475 111.45 154.704 117.021 161 124.5L164.5 144C150.672 148.385 144.091 149.893 134.5 149L114.5 145.5C111.268 140.512 111.988 132.038 113.5 126.5Z" fill="#465C69" stroke="#465C69"/>
</svg>
