<svg width="48" height="49" viewBox="0 0 48 49" fill="none" xmlns="http://www.w3.org/2000/svg">
<path fill-rule="evenodd" clip-rule="evenodd" d="M24 0.195435C10.7452 0.195435 0 10.9406 0 24.1954C0 37.4503 10.7452 48.1954 24 48.1954C37.2548 48.1954 48 37.4503 48 24.1954C48 10.9406 37.2548 0.195435 24 0.195435ZM17.6002 27.3954C15.833 27.3954 14.4002 28.8282 14.4002 30.5954C14.4002 32.3626 15.833 33.7954 17.6002 33.7954C19.3674 33.7954 20.8002 32.3626 20.8002 30.5954C20.8002 28.8282 19.3674 27.3954 17.6002 27.3954ZM36.8 33.7954H32.5337C32.5337 23.7962 24.3993 15.6618 14.4002 15.6618V11.3954C26.7513 11.3954 36.8 21.4442 36.8 33.7954ZM25.0671 33.7954H29.3334C29.3334 25.561 22.6343 18.8618 14.4 18.8618V23.129C20.2815 23.129 25.0671 27.9138 25.0671 33.7954Z" fill="#465C69"/>
</svg>
