<svg width="48" height="48" viewBox="0 0 48 48" fill="none" xmlns="http://www.w3.org/2000/svg">
<path d="M47.5 24C47.5 36.9787 36.9787 47.5 24 47.5C11.0213 47.5 0.5 36.9787 0.5 24C0.5 11.0213 11.0213 0.5 24 0.5C36.9787 0.5 47.5 11.0213 47.5 24Z" fill="white" stroke="#465C69"/>
<g opacity="0.2">
<path opacity="0.2" d="M14.2507 41.625C14.169 41.625 14.0857 41.616 14.0025 41.5972C13.3957 41.4607 13.0155 40.8592 13.152 40.2525L19.902 10.2525C20.0385 9.64575 20.6415 9.2655 21.246 9.402C21.8527 9.5385 22.233 10.14 22.0965 10.746L15.3465 40.746C15.2302 41.2695 14.7652 41.625 14.2507 41.625Z" fill="#231F20"/>
</g>
<g opacity="0.2">
<path opacity="0.2" d="M33.7485 41.625C33.2227 41.625 32.7532 41.2552 32.6467 40.7197L26.6467 10.7197C26.5245 10.1107 26.9197 9.51824 27.5295 9.39599C28.1385 9.27224 28.731 9.66899 28.8532 10.2787L34.8532 40.2787C34.9755 40.8877 34.5802 41.481 33.9705 41.6025C33.8962 41.6182 33.822 41.625 33.7485 41.625Z" fill="#231F20"/>
</g>
<path d="M21 9L14.25 39" stroke="#465C69" stroke-width="3" stroke-miterlimit="10" stroke-linecap="round" stroke-linejoin="round"/>
<path d="M27.75 9L33.75 39" stroke="#465C69" stroke-width="3" stroke-miterlimit="10" stroke-linecap="round" stroke-linejoin="round"/>
<path d="M24 26.5312V39" stroke="#465C69" stroke-width="3" stroke-miterlimit="10" stroke-linecap="round" stroke-linejoin="round"/>
<path d="M36.25 28.6815C36.25 29.0491 35.8535 29.5 35.1562 29.5H12.8438C12.1465 29.5 11.75 29.0491 11.75 28.6815V14.8185C11.75 14.4509 12.1465 14 12.8438 14H35.1562C35.8535 14 36.25 14.4509 36.25 14.8185V28.6815Z" fill="white" stroke="#465C69"/>
<path d="M17.25 13.875H30.75" stroke="#788891" stroke-width="3" stroke-miterlimit="10" stroke-linecap="round" stroke-linejoin="round"/>
<path d="M17.25 30.375H30.75" stroke="#788891" stroke-width="3" stroke-miterlimit="10" stroke-linecap="round" stroke-linejoin="round"/>
<path d="M14.625 27C14.625 27 22.875 13.5 22.875 19.5C22.875 25.5 22.875 27 24.375 25.5C25.875 24 29.625 19.5 33.375 18.75" stroke="#465C69" stroke-width="3" stroke-miterlimit="10" stroke-linecap="round"/>
</svg>
