<svg width="200" height="200" viewBox="0 0 200 200" fill="none" xmlns="http://www.w3.org/2000/svg">
<path d="M0.1 199.9V0.1H199.9V199.9H0.1Z" fill="white" stroke="#465C69" stroke-width="0.2"/>
<path d="M21.7216 26.927V21.7216H26.927V26.927H21.7216Z" fill="#465C69" stroke="#465C69" stroke-width="0.2"/>
<path d="M27.1268 26.927V21.7216H32.3322V26.927H27.1268Z" fill="#465C69" stroke="#465C69" stroke-width="0.2"/>
<path d="M32.5327 26.927V21.7216H37.7381V26.927H32.5327Z" fill="#465C69" stroke="#465C69" stroke-width="0.2"/>
<path d="M37.938 26.927V21.7216H43.1434V26.927H37.938Z" fill="#465C69" stroke="#465C69" stroke-width="0.2"/>
<path d="M43.3432 26.927V21.7216H48.5486V26.927H43.3432Z" fill="#465C69" stroke="#465C69" stroke-width="0.2"/>
<path d="M48.7484 26.927V21.7216H53.9538V26.927H48.7484Z" fill="#465C69" stroke="#465C69" stroke-width="0.2"/>
<path d="M54.1543 26.927V21.7216H59.3597V26.927H54.1543Z" fill="#465C69" stroke="#465C69" stroke-width="0.2"/>
<path d="M75.7758 26.927V21.7216H80.9812V26.927H75.7758Z" fill="#465C69" stroke="#465C69" stroke-width="0.2"/>
<path d="M86.5862 26.927V21.7216H91.7916V26.927H86.5862Z" fill="#465C69" stroke="#465C69" stroke-width="0.2"/>
<path d="M91.9922 26.927V21.7216H97.1975V26.927H91.9922Z" fill="#465C69" stroke="#465C69" stroke-width="0.2"/>
<path d="M102.803 26.927V21.7216H108.008V26.927H102.803Z" fill="#465C69" stroke="#465C69" stroke-width="0.2"/>
<path d="M140.64 26.927V21.7216H145.846V26.927H140.64Z" fill="#465C69" stroke="#465C69" stroke-width="0.2"/>
<path d="M146.046 26.927V21.7216H151.251V26.927H146.046Z" fill="#465C69" stroke="#465C69" stroke-width="0.2"/>
<path d="M151.452 26.927V21.7216H156.657V26.927H151.452Z" fill="#465C69" stroke="#465C69" stroke-width="0.2"/>
<path d="M156.857 26.927V21.7216H162.062V26.927H156.857Z" fill="#465C69" stroke="#465C69" stroke-width="0.2"/>
<path d="M162.262 26.927V21.7216H167.467V26.927H162.262Z" fill="#465C69" stroke="#465C69" stroke-width="0.2"/>
<path d="M167.667 26.927V21.7216H172.873V26.927H167.667Z" fill="#465C69" stroke="#465C69" stroke-width="0.2"/>
<path d="M173.073 26.927V21.7216H178.279V26.927H173.073Z" fill="#465C69" stroke="#465C69" stroke-width="0.2"/>
<path d="M21.7216 32.3322V27.1268H26.927V32.3322H21.7216Z" fill="#465C69" stroke="#465C69" stroke-width="0.2"/>
<path d="M54.1543 32.3322V27.1268H59.3597V32.3322H54.1543Z" fill="#465C69" stroke="#465C69" stroke-width="0.2"/>
<path d="M64.9647 32.3322V27.1268H70.1701V32.3322H64.9647Z" fill="#465C69" stroke="#465C69" stroke-width="0.2"/>
<path d="M75.7758 32.3322V27.1268H80.9812V32.3322H75.7758Z" fill="#465C69" stroke="#465C69" stroke-width="0.2"/>
<path d="M91.9922 32.3322V27.1268H97.1975V32.3322H91.9922Z" fill="#465C69" stroke="#465C69" stroke-width="0.2"/>
<path d="M97.3974 32.3322V27.1268H102.603V32.3322H97.3974Z" fill="#465C69" stroke="#465C69" stroke-width="0.2"/>
<path d="M102.803 32.3322V27.1268H108.008V32.3322H102.803Z" fill="#465C69" stroke="#465C69" stroke-width="0.2"/>
<path d="M119.019 32.3322V27.1268H124.224V32.3322H119.019Z" fill="#465C69" stroke="#465C69" stroke-width="0.2"/>
<path d="M124.424 32.3322V27.1268H129.63V32.3322H124.424Z" fill="#465C69" stroke="#465C69" stroke-width="0.2"/>
<path d="M129.829 32.3322V27.1268H135.035V32.3322H129.829Z" fill="#465C69" stroke="#465C69" stroke-width="0.2"/>
<path d="M140.64 32.3322V27.1268H145.846V32.3322H140.64Z" fill="#465C69" stroke="#465C69" stroke-width="0.2"/>
<path d="M173.073 32.3322V27.1268H178.279V32.3322H173.073Z" fill="#465C69" stroke="#465C69" stroke-width="0.2"/>
<path d="M21.7216 37.7381V32.5327H26.927V37.7381H21.7216Z" fill="#465C69" stroke="#465C69" stroke-width="0.2"/>
<path d="M32.5327 37.7381V32.5327H37.7381V37.7381H32.5327Z" fill="#465C69" stroke="#465C69" stroke-width="0.2"/>
<path d="M37.938 37.7381V32.5327H43.1434V37.7381H37.938Z" fill="#465C69" stroke="#465C69" stroke-width="0.2"/>
<path d="M43.3432 37.7381V32.5327H48.5486V37.7381H43.3432Z" fill="#465C69" stroke="#465C69" stroke-width="0.2"/>
<path d="M54.1543 37.7381V32.5327H59.3597V37.7381H54.1543Z" fill="#465C69" stroke="#465C69" stroke-width="0.2"/>
<path d="M86.5862 37.7381V32.5327H91.7916V37.7381H86.5862Z" fill="#465C69" stroke="#465C69" stroke-width="0.2"/>
<path d="M91.9922 37.7381V32.5327H97.1975V37.7381H91.9922Z" fill="#465C69" stroke="#465C69" stroke-width="0.2"/>
<path d="M108.208 37.7381V32.5327H113.413V37.7381H108.208Z" fill="#465C69" stroke="#465C69" stroke-width="0.2"/>
<path d="M129.829 37.7381V32.5327H135.035V37.7381H129.829Z" fill="#465C69" stroke="#465C69" stroke-width="0.2"/>
<path d="M140.64 37.7381V32.5327H145.846V37.7381H140.64Z" fill="#465C69" stroke="#465C69" stroke-width="0.2"/>
<path d="M151.452 37.7381V32.5327H156.657V37.7381H151.452Z" fill="#465C69" stroke="#465C69" stroke-width="0.2"/>
<path d="M156.857 37.7381V32.5327H162.062V37.7381H156.857Z" fill="#465C69" stroke="#465C69" stroke-width="0.2"/>
<path d="M162.262 37.7381V32.5327H167.467V37.7381H162.262Z" fill="#465C69" stroke="#465C69" stroke-width="0.2"/>
<path d="M173.073 37.7381V32.5327H178.279V37.7381H173.073Z" fill="#465C69" stroke="#465C69" stroke-width="0.2"/>
<path d="M21.7216 43.1434V37.938H26.927V43.1434H21.7216Z" fill="#465C69" stroke="#465C69" stroke-width="0.2"/>
<path d="M32.5327 43.1434V37.938H37.7381V43.1434H32.5327Z" fill="#465C69" stroke="#465C69" stroke-width="0.2"/>
<path d="M37.938 43.1434V37.938H43.1434V43.1434H37.938Z" fill="#465C69" stroke="#465C69" stroke-width="0.2"/>
<path d="M43.3432 43.1434V37.938H48.5486V43.1434H43.3432Z" fill="#465C69" stroke="#465C69" stroke-width="0.2"/>
<path d="M54.1543 43.1434V37.938H59.3597V43.1434H54.1543Z" fill="#465C69" stroke="#465C69" stroke-width="0.2"/>
<path d="M64.9647 43.1434V37.938H70.1701V43.1434H64.9647Z" fill="#465C69" stroke="#465C69" stroke-width="0.2"/>
<path d="M70.3699 43.1434V37.938H75.5753V43.1434H70.3699Z" fill="#465C69" stroke="#465C69" stroke-width="0.2"/>
<path d="M75.7758 43.1434V37.938H80.9812V43.1434H75.7758Z" fill="#465C69" stroke="#465C69" stroke-width="0.2"/>
<path d="M86.5862 43.1434V37.938H91.7916V43.1434H86.5862Z" fill="#465C69" stroke="#465C69" stroke-width="0.2"/>
<path d="M97.3974 43.1434V37.938H102.603V43.1434H97.3974Z" fill="#465C69" stroke="#465C69" stroke-width="0.2"/>
<path d="M102.803 43.1434V37.938H108.008V43.1434H102.803Z" fill="#465C69" stroke="#465C69" stroke-width="0.2"/>
<path d="M124.424 43.1434V37.938H129.63V43.1434H124.424Z" fill="#465C69" stroke="#465C69" stroke-width="0.2"/>
<path d="M129.829 43.1434V37.938H135.035V43.1434H129.829Z" fill="#465C69" stroke="#465C69" stroke-width="0.2"/>
<path d="M140.64 43.1434V37.938H145.846V43.1434H140.64Z" fill="#465C69" stroke="#465C69" stroke-width="0.2"/>
<path d="M151.452 43.1434V37.938H156.657V43.1434H151.452Z" fill="#465C69" stroke="#465C69" stroke-width="0.2"/>
<path d="M156.857 43.1434V37.938H162.062V43.1434H156.857Z" fill="#465C69" stroke="#465C69" stroke-width="0.2"/>
<path d="M162.262 43.1434V37.938H167.467V43.1434H162.262Z" fill="#465C69" stroke="#465C69" stroke-width="0.2"/>
<path d="M173.073 43.1434V37.938H178.279V43.1434H173.073Z" fill="#465C69" stroke="#465C69" stroke-width="0.2"/>
<path d="M21.7216 48.5486V43.3432H26.927V48.5486H21.7216Z" fill="#465C69" stroke="#465C69" stroke-width="0.2"/>
<path d="M32.5327 48.5486V43.3432H37.7381V48.5486H32.5327Z" fill="#465C69" stroke="#465C69" stroke-width="0.2"/>
<path d="M37.938 48.5486V43.3432H43.1434V48.5486H37.938Z" fill="#465C69" stroke="#465C69" stroke-width="0.2"/>
<path d="M43.3432 48.5486V43.3432H48.5486V48.5486H43.3432Z" fill="#465C69" stroke="#465C69" stroke-width="0.2"/>
<path d="M54.1543 48.5486V43.3432H59.3597V48.5486H54.1543Z" fill="#465C69" stroke="#465C69" stroke-width="0.2"/>
<path d="M70.3699 48.5486V43.3432H75.5753V48.5486H70.3699Z" fill="#465C69" stroke="#465C69" stroke-width="0.2"/>
<path d="M102.803 48.5486V43.3432H108.008V48.5486H102.803Z" fill="#465C69" stroke="#465C69" stroke-width="0.2"/>
<path d="M108.208 48.5486V43.3432H113.413V48.5486H108.208Z" fill="#465C69" stroke="#465C69" stroke-width="0.2"/>
<path d="M119.019 48.5486V43.3432H124.224V48.5486H119.019Z" fill="#465C69" stroke="#465C69" stroke-width="0.2"/>
<path d="M124.424 48.5486V43.3432H129.63V48.5486H124.424Z" fill="#465C69" stroke="#465C69" stroke-width="0.2"/>
<path d="M140.64 48.5486V43.3432H145.846V48.5486H140.64Z" fill="#465C69" stroke="#465C69" stroke-width="0.2"/>
<path d="M151.452 48.5486V43.3432H156.657V48.5486H151.452Z" fill="#465C69" stroke="#465C69" stroke-width="0.2"/>
<path d="M156.857 48.5486V43.3432H162.062V48.5486H156.857Z" fill="#465C69" stroke="#465C69" stroke-width="0.2"/>
<path d="M162.262 48.5486V43.3432H167.467V48.5486H162.262Z" fill="#465C69" stroke="#465C69" stroke-width="0.2"/>
<path d="M173.073 48.5486V43.3432H178.279V48.5486H173.073Z" fill="#465C69" stroke="#465C69" stroke-width="0.2"/>
<path d="M21.7216 53.9538V48.7484H26.927V53.9538H21.7216Z" fill="#465C69" stroke="#465C69" stroke-width="0.2"/>
<path d="M54.1543 53.9538V48.7484H59.3597V53.9538H54.1543Z" fill="#465C69" stroke="#465C69" stroke-width="0.2"/>
<path d="M64.9647 53.9538V48.7484H70.1701V53.9538H64.9647Z" fill="#465C69" stroke="#465C69" stroke-width="0.2"/>
<path d="M70.3699 53.9538V48.7484H75.5753V53.9538H70.3699Z" fill="#465C69" stroke="#465C69" stroke-width="0.2"/>
<path d="M81.181 53.9538V48.7484H86.3864V53.9538H81.181Z" fill="#465C69" stroke="#465C69" stroke-width="0.2"/>
<path d="M86.5862 53.9538V48.7484H91.7916V53.9538H86.5862Z" fill="#465C69" stroke="#465C69" stroke-width="0.2"/>
<path d="M129.829 53.9538V48.7484H135.035V53.9538H129.829Z" fill="#465C69" stroke="#465C69" stroke-width="0.2"/>
<path d="M140.64 53.9538V48.7484H145.846V53.9538H140.64Z" fill="#465C69" stroke="#465C69" stroke-width="0.2"/>
<path d="M173.073 53.9538V48.7484H178.279V53.9538H173.073Z" fill="#465C69" stroke="#465C69" stroke-width="0.2"/>
<path d="M21.7216 59.3597V54.1543H26.927V59.3597H21.7216Z" fill="#465C69" stroke="#465C69" stroke-width="0.2"/>
<path d="M27.1268 59.3597V54.1543H32.3322V59.3597H27.1268Z" fill="#465C69" stroke="#465C69" stroke-width="0.2"/>
<path d="M32.5327 59.3597V54.1543H37.7381V59.3597H32.5327Z" fill="#465C69" stroke="#465C69" stroke-width="0.2"/>
<path d="M37.938 59.3597V54.1543H43.1434V59.3597H37.938Z" fill="#465C69" stroke="#465C69" stroke-width="0.2"/>
<path d="M43.3432 59.3597V54.1543H48.5486V59.3597H43.3432Z" fill="#465C69" stroke="#465C69" stroke-width="0.2"/>
<path d="M48.7484 59.3597V54.1543H53.9538V59.3597H48.7484Z" fill="#465C69" stroke="#465C69" stroke-width="0.2"/>
<path d="M54.1543 59.3597V54.1543H59.3597V59.3597H54.1543Z" fill="#465C69" stroke="#465C69" stroke-width="0.2"/>
<path d="M64.9647 59.3597V54.1543H70.1701V59.3597H64.9647Z" fill="#465C69" stroke="#465C69" stroke-width="0.2"/>
<path d="M75.7758 59.3597V54.1543H80.9812V59.3597H75.7758Z" fill="#465C69" stroke="#465C69" stroke-width="0.2"/>
<path d="M86.5862 59.3597V54.1543H91.7916V59.3597H86.5862Z" fill="#465C69" stroke="#465C69" stroke-width="0.2"/>
<path d="M97.3974 59.3597V54.1543H102.603V59.3597H97.3974Z" fill="#465C69" stroke="#465C69" stroke-width="0.2"/>
<path d="M108.208 59.3597V54.1543H113.413V59.3597H108.208Z" fill="#465C69" stroke="#465C69" stroke-width="0.2"/>
<path d="M119.019 59.3597V54.1543H124.224V59.3597H119.019Z" fill="#465C69" stroke="#465C69" stroke-width="0.2"/>
<path d="M129.829 59.3597V54.1543H135.035V59.3597H129.829Z" fill="#465C69" stroke="#465C69" stroke-width="0.2"/>
<path d="M140.64 59.3597V54.1543H145.846V59.3597H140.64Z" fill="#465C69" stroke="#465C69" stroke-width="0.2"/>
<path d="M146.046 59.3597V54.1543H151.251V59.3597H146.046Z" fill="#465C69" stroke="#465C69" stroke-width="0.2"/>
<path d="M151.452 59.3597V54.1543H156.657V59.3597H151.452Z" fill="#465C69" stroke="#465C69" stroke-width="0.2"/>
<path d="M156.857 59.3597V54.1543H162.062V59.3597H156.857Z" fill="#465C69" stroke="#465C69" stroke-width="0.2"/>
<path d="M162.262 59.3597V54.1543H167.467V59.3597H162.262Z" fill="#465C69" stroke="#465C69" stroke-width="0.2"/>
<path d="M167.667 59.3597V54.1543H172.873V59.3597H167.667Z" fill="#465C69" stroke="#465C69" stroke-width="0.2"/>
<path d="M173.073 59.3597V54.1543H178.279V59.3597H173.073Z" fill="#465C69" stroke="#465C69" stroke-width="0.2"/>
<path d="M70.3699 64.7649V59.5595H75.5753V64.7649H70.3699Z" fill="#465C69" stroke="#465C69" stroke-width="0.2"/>
<path d="M75.7758 64.7649V59.5595H80.9812V64.7649H75.7758Z" fill="#465C69" stroke="#465C69" stroke-width="0.2"/>
<path d="M81.181 64.7649V59.5595H86.3864V64.7649H81.181Z" fill="#465C69" stroke="#465C69" stroke-width="0.2"/>
<path d="M97.3974 64.7649V59.5595H102.603V64.7649H97.3974Z" fill="#465C69" stroke="#465C69" stroke-width="0.2"/>
<path d="M102.803 64.7649V59.5595H108.008V64.7649H102.803Z" fill="#465C69" stroke="#465C69" stroke-width="0.2"/>
<path d="M113.614 64.7649V59.5595H118.819V64.7649H113.614Z" fill="#465C69" stroke="#465C69" stroke-width="0.2"/>
<path d="M119.019 64.7649V59.5595H124.224V64.7649H119.019Z" fill="#465C69" stroke="#465C69" stroke-width="0.2"/>
<path d="M21.7216 70.1701V64.9647H26.927V70.1701H21.7216Z" fill="#465C69" stroke="#465C69" stroke-width="0.2"/>
<path d="M27.1268 70.1701V64.9647H32.3322V70.1701H27.1268Z" fill="#465C69" stroke="#465C69" stroke-width="0.2"/>
<path d="M32.5327 70.1701V64.9647H37.7381V70.1701H32.5327Z" fill="#465C69" stroke="#465C69" stroke-width="0.2"/>
<path d="M37.938 70.1701V64.9647H43.1434V70.1701H37.938Z" fill="#465C69" stroke="#465C69" stroke-width="0.2"/>
<path d="M43.3432 70.1701V64.9647H48.5486V70.1701H43.3432Z" fill="#465C69" stroke="#465C69" stroke-width="0.2"/>
<path d="M54.1543 70.1701V64.9647H59.3597V70.1701H54.1543Z" fill="#465C69" stroke="#465C69" stroke-width="0.2"/>
<path d="M59.5595 70.1701V64.9647H64.7649V70.1701H59.5595Z" fill="#465C69" stroke="#465C69" stroke-width="0.2"/>
<path d="M64.9647 70.1701V64.9647H70.1701V70.1701H64.9647Z" fill="#465C69" stroke="#465C69" stroke-width="0.2"/>
<path d="M70.3699 70.1701V64.9647H75.5753V70.1701H70.3699Z" fill="#465C69" stroke="#465C69" stroke-width="0.2"/>
<path d="M81.181 70.1701V64.9647H86.3864V70.1701H81.181Z" fill="#465C69" stroke="#465C69" stroke-width="0.2"/>
<path d="M102.803 70.1701V64.9647H108.008V70.1701H102.803Z" fill="#465C69" stroke="#465C69" stroke-width="0.2"/>
<path d="M119.019 70.1701V64.9647H124.224V70.1701H119.019Z" fill="#465C69" stroke="#465C69" stroke-width="0.2"/>
<path d="M135.235 70.1701V64.9647H140.441V70.1701H135.235Z" fill="#465C69" stroke="#465C69" stroke-width="0.2"/>
<path d="M146.046 70.1701V64.9647H151.251V70.1701H146.046Z" fill="#465C69" stroke="#465C69" stroke-width="0.2"/>
<path d="M156.857 70.1701V64.9647H162.062V70.1701H156.857Z" fill="#465C69" stroke="#465C69" stroke-width="0.2"/>
<path d="M167.667 70.1701V64.9647H172.873V70.1701H167.667Z" fill="#465C69" stroke="#465C69" stroke-width="0.2"/>
<path d="M21.7216 75.5753V70.3699H26.927V75.5753H21.7216Z" fill="#465C69" stroke="#465C69" stroke-width="0.2"/>
<path d="M27.1268 75.5753V70.3699H32.3322V75.5753H27.1268Z" fill="#465C69" stroke="#465C69" stroke-width="0.2"/>
<path d="M32.5327 75.5753V70.3699H37.7381V75.5753H32.5327Z" fill="#465C69" stroke="#465C69" stroke-width="0.2"/>
<path d="M37.938 75.5753V70.3699H43.1434V75.5753H37.938Z" fill="#465C69" stroke="#465C69" stroke-width="0.2"/>
<path d="M43.3432 75.5753V70.3699H48.5486V75.5753H43.3432Z" fill="#465C69" stroke="#465C69" stroke-width="0.2"/>
<path d="M48.7484 75.5753V70.3699H53.9538V75.5753H48.7484Z" fill="#465C69" stroke="#465C69" stroke-width="0.2"/>
<path d="M59.5595 75.5753V70.3699H64.7649V75.5753H59.5595Z" fill="#465C69" stroke="#465C69" stroke-width="0.2"/>
<path d="M75.7758 75.5753V70.3699H80.9812V75.5753H75.7758Z" fill="#465C69" stroke="#465C69" stroke-width="0.2"/>
<path d="M86.5862 75.5753V70.3699H91.7916V75.5753H86.5862Z" fill="#465C69" stroke="#465C69" stroke-width="0.2"/>
<path d="M91.9922 75.5753V70.3699H97.1975V75.5753H91.9922Z" fill="#465C69" stroke="#465C69" stroke-width="0.2"/>
<path d="M97.3974 75.5753V70.3699H102.603V75.5753H97.3974Z" fill="#465C69" stroke="#465C69" stroke-width="0.2"/>
<path d="M102.803 75.5753V70.3699H108.008V75.5753H102.803Z" fill="#465C69" stroke="#465C69" stroke-width="0.2"/>
<path d="M108.208 75.5753V70.3699H113.413V75.5753H108.208Z" fill="#465C69" stroke="#465C69" stroke-width="0.2"/>
<path d="M113.614 75.5753V70.3699H118.819V75.5753H113.614Z" fill="#465C69" stroke="#465C69" stroke-width="0.2"/>
<path d="M124.424 75.5753V70.3699H129.63V75.5753H124.424Z" fill="#465C69" stroke="#465C69" stroke-width="0.2"/>
<path d="M129.829 75.5753V70.3699H135.035V75.5753H129.829Z" fill="#465C69" stroke="#465C69" stroke-width="0.2"/>
<path d="M140.64 75.5753V70.3699H145.846V75.5753H140.64Z" fill="#465C69" stroke="#465C69" stroke-width="0.2"/>
<path d="M146.046 75.5753V70.3699H151.251V75.5753H146.046Z" fill="#465C69" stroke="#465C69" stroke-width="0.2"/>
<path d="M156.857 75.5753V70.3699H162.062V75.5753H156.857Z" fill="#465C69" stroke="#465C69" stroke-width="0.2"/>
<path d="M162.262 75.5753V70.3699H167.467V75.5753H162.262Z" fill="#465C69" stroke="#465C69" stroke-width="0.2"/>
<path d="M27.1268 80.9812V75.7758H32.3322V80.9812H27.1268Z" fill="#465C69" stroke="#465C69" stroke-width="0.2"/>
<path d="M32.5327 80.9812V75.7758H37.7381V80.9812H32.5327Z" fill="#465C69" stroke="#465C69" stroke-width="0.2"/>
<path d="M48.7484 80.9812V75.7758H53.9538V80.9812H48.7484Z" fill="#465C69" stroke="#465C69" stroke-width="0.2"/>
<path d="M54.1543 80.9812V75.7758H59.3597V80.9812H54.1543Z" fill="#465C69" stroke="#465C69" stroke-width="0.2"/>
<path d="M59.5595 80.9812V75.7758H64.7649V80.9812H59.5595Z" fill="#465C69" stroke="#465C69" stroke-width="0.2"/>
<path d="M64.9647 80.9812V75.7758H70.1701V80.9812H64.9647Z" fill="#465C69" stroke="#465C69" stroke-width="0.2"/>
<path d="M75.7758 80.9812V75.7758H80.9812V80.9812H75.7758Z" fill="#465C69" stroke="#465C69" stroke-width="0.2"/>
<path d="M91.9922 80.9812V75.7758H97.1975V80.9812H91.9922Z" fill="#465C69" stroke="#465C69" stroke-width="0.2"/>
<path d="M97.3974 80.9812V75.7758H102.603V80.9812H97.3974Z" fill="#465C69" stroke="#465C69" stroke-width="0.2"/>
<path d="M108.208 80.9812V75.7758H113.413V80.9812H108.208Z" fill="#465C69" stroke="#465C69" stroke-width="0.2"/>
<path d="M119.019 80.9812V75.7758H124.224V80.9812H119.019Z" fill="#465C69" stroke="#465C69" stroke-width="0.2"/>
<path d="M129.829 80.9812V75.7758H135.035V80.9812H129.829Z" fill="#465C69" stroke="#465C69" stroke-width="0.2"/>
<path d="M156.857 80.9812V75.7758H162.062V80.9812H156.857Z" fill="#465C69" stroke="#465C69" stroke-width="0.2"/>
<path d="M167.667 80.9812V75.7758H172.873V80.9812H167.667Z" fill="#465C69" stroke="#465C69" stroke-width="0.2"/>
<path d="M21.7216 86.3865V81.181H26.927V86.3865H21.7216Z" fill="#465C69" stroke="#465C69" stroke-width="0.2"/>
<path d="M27.1268 86.3865V81.181H32.3322V86.3865H27.1268Z" fill="#465C69" stroke="#465C69" stroke-width="0.2"/>
<path d="M32.5327 86.3865V81.181H37.7381V86.3865H32.5327Z" fill="#465C69" stroke="#465C69" stroke-width="0.2"/>
<path d="M37.938 86.3865V81.181H43.1434V86.3865H37.938Z" fill="#465C69" stroke="#465C69" stroke-width="0.2"/>
<path d="M86.5862 86.3865V81.181H91.7916V86.3865H86.5862Z" fill="#465C69" stroke="#465C69" stroke-width="0.2"/>
<path d="M91.9922 86.3865V81.181H97.1975V86.3865H91.9922Z" fill="#465C69" stroke="#465C69" stroke-width="0.2"/>
<path d="M108.208 86.3865V81.181H113.413V86.3865H108.208Z" fill="#465C69" stroke="#465C69" stroke-width="0.2"/>
<path d="M119.019 86.3865V81.181H124.224V86.3865H119.019Z" fill="#465C69" stroke="#465C69" stroke-width="0.2"/>
<path d="M146.046 86.3865V81.181H151.251V86.3865H146.046Z" fill="#465C69" stroke="#465C69" stroke-width="0.2"/>
<path d="M156.857 86.3865V81.181H162.062V86.3865H156.857Z" fill="#465C69" stroke="#465C69" stroke-width="0.2"/>
<path d="M173.073 86.3865V81.181H178.279V86.3865H173.073Z" fill="#465C69" stroke="#465C69" stroke-width="0.2"/>
<path d="M21.7216 91.7916V86.5862H26.927V91.7916H21.7216Z" fill="#465C69" stroke="#465C69" stroke-width="0.2"/>
<path d="M43.3432 91.7916V86.5862H48.5486V91.7916H43.3432Z" fill="#465C69" stroke="#465C69" stroke-width="0.2"/>
<path d="M48.7484 91.7916V86.5862H53.9538V91.7916H48.7484Z" fill="#465C69" stroke="#465C69" stroke-width="0.2"/>
<path d="M54.1543 91.7916V86.5862H59.3597V91.7916H54.1543Z" fill="#465C69" stroke="#465C69" stroke-width="0.2"/>
<path d="M59.5595 91.7916V86.5862H64.7649V91.7916H59.5595Z" fill="#465C69" stroke="#465C69" stroke-width="0.2"/>
<path d="M64.9647 91.7916V86.5862H70.1701V91.7916H64.9647Z" fill="#465C69" stroke="#465C69" stroke-width="0.2"/>
<path d="M70.3699 91.7916V86.5862H75.5753V91.7916H70.3699Z" fill="#465C69" stroke="#465C69" stroke-width="0.2"/>
<path d="M75.7758 91.7916V86.5862H80.9812V91.7916H75.7758Z" fill="#465C69" stroke="#465C69" stroke-width="0.2"/>
<path d="M86.5862 91.7916V86.5862H91.7916V91.7916H86.5862Z" fill="#465C69" stroke="#465C69" stroke-width="0.2"/>
<path d="M97.3974 91.7916V86.5862H102.603V91.7916H97.3974Z" fill="#465C69" stroke="#465C69" stroke-width="0.2"/>
<path d="M108.208 91.7916V86.5862H113.413V91.7916H108.208Z" fill="#465C69" stroke="#465C69" stroke-width="0.2"/>
<path d="M113.614 91.7916V86.5862H118.819V91.7916H113.614Z" fill="#465C69" stroke="#465C69" stroke-width="0.2"/>
<path d="M119.019 91.7916V86.5862H124.224V91.7916H119.019Z" fill="#465C69" stroke="#465C69" stroke-width="0.2"/>
<path d="M124.424 91.7916V86.5862H129.63V91.7916H124.424Z" fill="#465C69" stroke="#465C69" stroke-width="0.2"/>
<path d="M151.452 91.7916V86.5862H156.657V91.7916H151.452Z" fill="#465C69" stroke="#465C69" stroke-width="0.2"/>
<path d="M162.262 91.7916V86.5862H167.467V91.7916H162.262Z" fill="#465C69" stroke="#465C69" stroke-width="0.2"/>
<path d="M167.667 91.7916V86.5862H172.873V91.7916H167.667Z" fill="#465C69" stroke="#465C69" stroke-width="0.2"/>
<path d="M173.073 91.7916V86.5862H178.279V91.7916H173.073Z" fill="#465C69" stroke="#465C69" stroke-width="0.2"/>
<path d="M27.1268 97.1975V91.9922H32.3322V97.1975H27.1268Z" fill="#465C69" stroke="#465C69" stroke-width="0.2"/>
<path d="M32.5327 97.1975V91.9922H37.7381V97.1975H32.5327Z" fill="#465C69" stroke="#465C69" stroke-width="0.2"/>
<path d="M37.938 97.1975V91.9922H43.1434V97.1975H37.938Z" fill="#465C69" stroke="#465C69" stroke-width="0.2"/>
<path d="M48.7484 97.1975V91.9922H53.9538V97.1975H48.7484Z" fill="#465C69" stroke="#465C69" stroke-width="0.2"/>
<path d="M59.5595 97.1975V91.9922H64.7649V97.1975H59.5595Z" fill="#465C69" stroke="#465C69" stroke-width="0.2"/>
<path d="M64.9647 97.1975V91.9922H70.1701V97.1975H64.9647Z" fill="#465C69" stroke="#465C69" stroke-width="0.2"/>
<path d="M70.3699 97.1975V91.9922H75.5753V97.1975H70.3699Z" fill="#465C69" stroke="#465C69" stroke-width="0.2"/>
<path d="M102.803 97.1975V91.9922H108.008V97.1975H102.803Z" fill="#465C69" stroke="#465C69" stroke-width="0.2"/>
<path d="M119.019 97.1975V91.9922H124.224V97.1975H119.019Z" fill="#465C69" stroke="#465C69" stroke-width="0.2"/>
<path d="M21.7216 102.603V97.3974H26.927V102.603H21.7216Z" fill="#465C69" stroke="#465C69" stroke-width="0.2"/>
<path d="M48.7484 102.603V97.3974H53.9538V102.603H48.7484Z" fill="#465C69" stroke="#465C69" stroke-width="0.2"/>
<path d="M54.1543 102.603V97.3974H59.3597V102.603H54.1543Z" fill="#465C69" stroke="#465C69" stroke-width="0.2"/>
<path d="M59.5595 102.603V97.3974H64.7649V102.603H59.5595Z" fill="#465C69" stroke="#465C69" stroke-width="0.2"/>
<path d="M64.9647 102.603V97.3974H70.1701V102.603H64.9647Z" fill="#465C69" stroke="#465C69" stroke-width="0.2"/>
<path d="M70.3699 102.603V97.3974H75.5753V102.603H70.3699Z" fill="#465C69" stroke="#465C69" stroke-width="0.2"/>
<path d="M81.181 102.603V97.3974H86.3864V102.603H81.181Z" fill="#465C69" stroke="#465C69" stroke-width="0.2"/>
<path d="M86.5862 102.603V97.3974H91.7916V102.603H86.5862Z" fill="#465C69" stroke="#465C69" stroke-width="0.2"/>
<path d="M102.803 102.603V97.3974H108.008V102.603H102.803Z" fill="#465C69" stroke="#465C69" stroke-width="0.2"/>
<path d="M108.208 102.603V97.3974H113.413V102.603H108.208Z" fill="#465C69" stroke="#465C69" stroke-width="0.2"/>
<path d="M124.424 102.603V97.3974H129.63V102.603H124.424Z" fill="#465C69" stroke="#465C69" stroke-width="0.2"/>
<path d="M140.64 102.603V97.3974H145.846V102.603H140.64Z" fill="#465C69" stroke="#465C69" stroke-width="0.2"/>
<path d="M156.857 102.603V97.3974H162.062V102.603H156.857Z" fill="#465C69" stroke="#465C69" stroke-width="0.2"/>
<path d="M162.262 102.603V97.3974H167.467V102.603H162.262Z" fill="#465C69" stroke="#465C69" stroke-width="0.2"/>
<path d="M167.667 102.603V97.3974H172.873V102.603H167.667Z" fill="#465C69" stroke="#465C69" stroke-width="0.2"/>
<path d="M32.5327 108.008V102.803H37.7381V108.008H32.5327Z" fill="#465C69" stroke="#465C69" stroke-width="0.2"/>
<path d="M59.5595 108.008V102.803H64.7649V108.008H59.5595Z" fill="#465C69" stroke="#465C69" stroke-width="0.2"/>
<path d="M64.9647 108.008V102.803H70.1701V108.008H64.9647Z" fill="#465C69" stroke="#465C69" stroke-width="0.2"/>
<path d="M70.3699 108.008V102.803H75.5753V108.008H70.3699Z" fill="#465C69" stroke="#465C69" stroke-width="0.2"/>
<path d="M75.7758 108.008V102.803H80.9812V108.008H75.7758Z" fill="#465C69" stroke="#465C69" stroke-width="0.2"/>
<path d="M81.181 108.008V102.803H86.3864V108.008H81.181Z" fill="#465C69" stroke="#465C69" stroke-width="0.2"/>
<path d="M97.3974 108.008V102.803H102.603V108.008H97.3974Z" fill="#465C69" stroke="#465C69" stroke-width="0.2"/>
<path d="M135.235 108.008V102.803H140.441V108.008H135.235Z" fill="#465C69" stroke="#465C69" stroke-width="0.2"/>
<path d="M146.046 108.008V102.803H151.251V108.008H146.046Z" fill="#465C69" stroke="#465C69" stroke-width="0.2"/>
<path d="M156.857 108.008V102.803H162.062V108.008H156.857Z" fill="#465C69" stroke="#465C69" stroke-width="0.2"/>
<path d="M21.7216 113.413V108.208H26.927V113.413H21.7216Z" fill="#465C69" stroke="#465C69" stroke-width="0.2"/>
<path d="M27.1268 113.413V108.208H32.3322V113.413H27.1268Z" fill="#465C69" stroke="#465C69" stroke-width="0.2"/>
<path d="M43.3432 113.413V108.208H48.5486V113.413H43.3432Z" fill="#465C69" stroke="#465C69" stroke-width="0.2"/>
<path d="M54.1543 113.413V108.208H59.3597V113.413H54.1543Z" fill="#465C69" stroke="#465C69" stroke-width="0.2"/>
<path d="M70.3699 113.413V108.208H75.5753V113.413H70.3699Z" fill="#465C69" stroke="#465C69" stroke-width="0.2"/>
<path d="M75.7758 113.413V108.208H80.9812V113.413H75.7758Z" fill="#465C69" stroke="#465C69" stroke-width="0.2"/>
<path d="M81.181 113.413V108.208H86.3864V113.413H81.181Z" fill="#465C69" stroke="#465C69" stroke-width="0.2"/>
<path d="M108.208 113.413V108.208H113.413V113.413H108.208Z" fill="#465C69" stroke="#465C69" stroke-width="0.2"/>
<path d="M146.046 113.413V108.208H151.251V113.413H146.046Z" fill="#465C69" stroke="#465C69" stroke-width="0.2"/>
<path d="M21.7216 118.819V113.614H26.927V118.819H21.7216Z" fill="#465C69" stroke="#465C69" stroke-width="0.2"/>
<path d="M43.3432 118.819V113.614H48.5486V118.819H43.3432Z" fill="#465C69" stroke="#465C69" stroke-width="0.2"/>
<path d="M48.7484 118.819V113.614H53.9538V118.819H48.7484Z" fill="#465C69" stroke="#465C69" stroke-width="0.2"/>
<path d="M59.5595 118.819V113.614H64.7649V118.819H59.5595Z" fill="#465C69" stroke="#465C69" stroke-width="0.2"/>
<path d="M64.9647 118.819V113.614H70.1701V118.819H64.9647Z" fill="#465C69" stroke="#465C69" stroke-width="0.2"/>
<path d="M70.3699 118.819V113.614H75.5753V118.819H70.3699Z" fill="#465C69" stroke="#465C69" stroke-width="0.2"/>
<path d="M75.7758 118.819V113.614H80.9812V118.819H75.7758Z" fill="#465C69" stroke="#465C69" stroke-width="0.2"/>
<path d="M86.5862 118.819V113.614H91.7916V118.819H86.5862Z" fill="#465C69" stroke="#465C69" stroke-width="0.2"/>
<path d="M91.9922 118.819V113.614H97.1975V118.819H91.9922Z" fill="#465C69" stroke="#465C69" stroke-width="0.2"/>
<path d="M97.3974 118.819V113.614H102.603V118.819H97.3974Z" fill="#465C69" stroke="#465C69" stroke-width="0.2"/>
<path d="M108.208 118.819V113.614H113.413V118.819H108.208Z" fill="#465C69" stroke="#465C69" stroke-width="0.2"/>
<path d="M119.019 118.819V113.614H124.224V118.819H119.019Z" fill="#465C69" stroke="#465C69" stroke-width="0.2"/>
<path d="M135.235 118.819V113.614H140.441V118.819H135.235Z" fill="#465C69" stroke="#465C69" stroke-width="0.2"/>
<path d="M140.64 118.819V113.614H145.846V118.819H140.64Z" fill="#465C69" stroke="#465C69" stroke-width="0.2"/>
<path d="M146.046 118.819V113.614H151.251V118.819H146.046Z" fill="#465C69" stroke="#465C69" stroke-width="0.2"/>
<path d="M162.262 118.819V113.614H167.467V118.819H162.262Z" fill="#465C69" stroke="#465C69" stroke-width="0.2"/>
<path d="M21.7216 124.224V119.019H26.927V124.224H21.7216Z" fill="#465C69" stroke="#465C69" stroke-width="0.2"/>
<path d="M37.938 124.224V119.019H43.1434V124.224H37.938Z" fill="#465C69" stroke="#465C69" stroke-width="0.2"/>
<path d="M43.3432 124.224V119.019H48.5486V124.224H43.3432Z" fill="#465C69" stroke="#465C69" stroke-width="0.2"/>
<path d="M54.1543 124.224V119.019H59.3597V124.224H54.1543Z" fill="#465C69" stroke="#465C69" stroke-width="0.2"/>
<path d="M59.5595 124.224V119.019H64.7649V124.224H59.5595Z" fill="#465C69" stroke="#465C69" stroke-width="0.2"/>
<path d="M64.9647 124.224V119.019H70.1701V124.224H64.9647Z" fill="#465C69" stroke="#465C69" stroke-width="0.2"/>
<path d="M70.3699 124.224V119.019H75.5753V124.224H70.3699Z" fill="#465C69" stroke="#465C69" stroke-width="0.2"/>
<path d="M91.9922 124.224V119.019H97.1975V124.224H91.9922Z" fill="#465C69" stroke="#465C69" stroke-width="0.2"/>
<path d="M97.3974 124.224V119.019H102.603V124.224H97.3974Z" fill="#465C69" stroke="#465C69" stroke-width="0.2"/>
<path d="M129.829 124.224V119.019H135.035V124.224H129.829Z" fill="#465C69" stroke="#465C69" stroke-width="0.2"/>
<path d="M151.452 124.224V119.019H156.657V124.224H151.452Z" fill="#465C69" stroke="#465C69" stroke-width="0.2"/>
<path d="M162.262 124.224V119.019H167.467V124.224H162.262Z" fill="#465C69" stroke="#465C69" stroke-width="0.2"/>
<path d="M167.667 124.224V119.019H172.873V124.224H167.667Z" fill="#465C69" stroke="#465C69" stroke-width="0.2"/>
<path d="M21.7216 129.63V124.424H26.927V129.63H21.7216Z" fill="#465C69" stroke="#465C69" stroke-width="0.2"/>
<path d="M32.5327 129.63V124.424H37.7381V129.63H32.5327Z" fill="#465C69" stroke="#465C69" stroke-width="0.2"/>
<path d="M64.9647 129.63V124.424H70.1701V129.63H64.9647Z" fill="#465C69" stroke="#465C69" stroke-width="0.2"/>
<path d="M70.3699 129.63V124.424H75.5753V129.63H70.3699Z" fill="#465C69" stroke="#465C69" stroke-width="0.2"/>
<path d="M75.7758 129.63V124.424H80.9812V129.63H75.7758Z" fill="#465C69" stroke="#465C69" stroke-width="0.2"/>
<path d="M86.5862 129.63V124.424H91.7916V129.63H86.5862Z" fill="#465C69" stroke="#465C69" stroke-width="0.2"/>
<path d="M91.9922 129.63V124.424H97.1975V129.63H91.9922Z" fill="#465C69" stroke="#465C69" stroke-width="0.2"/>
<path d="M102.803 129.63V124.424H108.008V129.63H102.803Z" fill="#465C69" stroke="#465C69" stroke-width="0.2"/>
<path d="M108.208 129.63V124.424H113.413V129.63H108.208Z" fill="#465C69" stroke="#465C69" stroke-width="0.2"/>
<path d="M113.614 129.63V124.424H118.819V129.63H113.614Z" fill="#465C69" stroke="#465C69" stroke-width="0.2"/>
<path d="M119.019 129.63V124.424H124.224V129.63H119.019Z" fill="#465C69" stroke="#465C69" stroke-width="0.2"/>
<path d="M124.424 129.63V124.424H129.63V129.63H124.424Z" fill="#465C69" stroke="#465C69" stroke-width="0.2"/>
<path d="M129.829 129.63V124.424H135.035V129.63H129.829Z" fill="#465C69" stroke="#465C69" stroke-width="0.2"/>
<path d="M135.235 129.63V124.424H140.441V129.63H135.235Z" fill="#465C69" stroke="#465C69" stroke-width="0.2"/>
<path d="M140.64 129.63V124.424H145.846V129.63H140.64Z" fill="#465C69" stroke="#465C69" stroke-width="0.2"/>
<path d="M146.046 129.63V124.424H151.251V129.63H146.046Z" fill="#465C69" stroke="#465C69" stroke-width="0.2"/>
<path d="M151.452 129.63V124.424H156.657V129.63H151.452Z" fill="#465C69" stroke="#465C69" stroke-width="0.2"/>
<path d="M162.262 129.63V124.424H167.467V129.63H162.262Z" fill="#465C69" stroke="#465C69" stroke-width="0.2"/>
<path d="M21.7216 135.035V129.829H26.927V135.035H21.7216Z" fill="#465C69" stroke="#465C69" stroke-width="0.2"/>
<path d="M32.5327 135.035V129.829H37.7381V135.035H32.5327Z" fill="#465C69" stroke="#465C69" stroke-width="0.2"/>
<path d="M37.938 135.035V129.829H43.1434V135.035H37.938Z" fill="#465C69" stroke="#465C69" stroke-width="0.2"/>
<path d="M48.7484 135.035V129.829H53.9538V135.035H48.7484Z" fill="#465C69" stroke="#465C69" stroke-width="0.2"/>
<path d="M54.1543 135.035V129.829H59.3597V135.035H54.1543Z" fill="#465C69" stroke="#465C69" stroke-width="0.2"/>
<path d="M64.9647 135.035V129.829H70.1701V135.035H64.9647Z" fill="#465C69" stroke="#465C69" stroke-width="0.2"/>
<path d="M86.5862 135.035V129.829H91.7916V135.035H86.5862Z" fill="#465C69" stroke="#465C69" stroke-width="0.2"/>
<path d="M97.3974 135.035V129.829H102.603V135.035H97.3974Z" fill="#465C69" stroke="#465C69" stroke-width="0.2"/>
<path d="M108.208 135.035V129.829H113.413V135.035H108.208Z" fill="#465C69" stroke="#465C69" stroke-width="0.2"/>
<path d="M113.614 135.035V129.829H118.819V135.035H113.614Z" fill="#465C69" stroke="#465C69" stroke-width="0.2"/>
<path d="M119.019 135.035V129.829H124.224V135.035H119.019Z" fill="#465C69" stroke="#465C69" stroke-width="0.2"/>
<path d="M129.829 135.035V129.829H135.035V135.035H129.829Z" fill="#465C69" stroke="#465C69" stroke-width="0.2"/>
<path d="M135.235 135.035V129.829H140.441V135.035H135.235Z" fill="#465C69" stroke="#465C69" stroke-width="0.2"/>
<path d="M140.64 135.035V129.829H145.846V135.035H140.64Z" fill="#465C69" stroke="#465C69" stroke-width="0.2"/>
<path d="M146.046 135.035V129.829H151.251V135.035H146.046Z" fill="#465C69" stroke="#465C69" stroke-width="0.2"/>
<path d="M151.452 135.035V129.829H156.657V135.035H151.452Z" fill="#465C69" stroke="#465C69" stroke-width="0.2"/>
<path d="M156.857 135.035V129.829H162.062V135.035H156.857Z" fill="#465C69" stroke="#465C69" stroke-width="0.2"/>
<path d="M162.262 135.035V129.829H167.467V135.035H162.262Z" fill="#465C69" stroke="#465C69" stroke-width="0.2"/>
<path d="M64.9647 140.441V135.235H70.1701V140.441H64.9647Z" fill="#465C69" stroke="#465C69" stroke-width="0.2"/>
<path d="M75.7758 140.441V135.235H80.9812V140.441H75.7758Z" fill="#465C69" stroke="#465C69" stroke-width="0.2"/>
<path d="M102.803 140.441V135.235H108.008V140.441H102.803Z" fill="#465C69" stroke="#465C69" stroke-width="0.2"/>
<path d="M124.424 140.441V135.235H129.63V140.441H124.424Z" fill="#465C69" stroke="#465C69" stroke-width="0.2"/>
<path d="M129.829 140.441V135.235H135.035V140.441H129.829Z" fill="#465C69" stroke="#465C69" stroke-width="0.2"/>
<path d="M151.452 140.441V135.235H156.657V140.441H151.452Z" fill="#465C69" stroke="#465C69" stroke-width="0.2"/>
<path d="M156.857 140.441V135.235H162.062V140.441H156.857Z" fill="#465C69" stroke="#465C69" stroke-width="0.2"/>
<path d="M162.262 140.441V135.235H167.467V140.441H162.262Z" fill="#465C69" stroke="#465C69" stroke-width="0.2"/>
<path d="M167.667 140.441V135.235H172.873V140.441H167.667Z" fill="#465C69" stroke="#465C69" stroke-width="0.2"/>
<path d="M21.7216 145.846V140.64H26.927V145.846H21.7216Z" fill="#465C69" stroke="#465C69" stroke-width="0.2"/>
<path d="M27.1268 145.846V140.64H32.3322V145.846H27.1268Z" fill="#465C69" stroke="#465C69" stroke-width="0.2"/>
<path d="M32.5327 145.846V140.64H37.7381V145.846H32.5327Z" fill="#465C69" stroke="#465C69" stroke-width="0.2"/>
<path d="M37.938 145.846V140.64H43.1434V145.846H37.938Z" fill="#465C69" stroke="#465C69" stroke-width="0.2"/>
<path d="M43.3432 145.846V140.64H48.5486V145.846H43.3432Z" fill="#465C69" stroke="#465C69" stroke-width="0.2"/>
<path d="M48.7484 145.846V140.64H53.9538V145.846H48.7484Z" fill="#465C69" stroke="#465C69" stroke-width="0.2"/>
<path d="M54.1543 145.846V140.64H59.3597V145.846H54.1543Z" fill="#465C69" stroke="#465C69" stroke-width="0.2"/>
<path d="M64.9647 145.846V140.64H70.1701V145.846H64.9647Z" fill="#465C69" stroke="#465C69" stroke-width="0.2"/>
<path d="M75.7758 145.846V140.64H80.9812V145.846H75.7758Z" fill="#465C69" stroke="#465C69" stroke-width="0.2"/>
<path d="M81.181 145.846V140.64H86.3864V145.846H81.181Z" fill="#465C69" stroke="#465C69" stroke-width="0.2"/>
<path d="M86.5862 145.846V140.64H91.7916V145.846H86.5862Z" fill="#465C69" stroke="#465C69" stroke-width="0.2"/>
<path d="M102.803 145.846V140.64H108.008V145.846H102.803Z" fill="#465C69" stroke="#465C69" stroke-width="0.2"/>
<path d="M108.208 145.846V140.64H113.413V145.846H108.208Z" fill="#465C69" stroke="#465C69" stroke-width="0.2"/>
<path d="M119.019 145.846V140.64H124.224V145.846H119.019Z" fill="#465C69" stroke="#465C69" stroke-width="0.2"/>
<path d="M129.829 145.846V140.64H135.035V145.846H129.829Z" fill="#465C69" stroke="#465C69" stroke-width="0.2"/>
<path d="M140.64 145.846V140.64H145.846V145.846H140.64Z" fill="#465C69" stroke="#465C69" stroke-width="0.2"/>
<path d="M151.452 145.846V140.64H156.657V145.846H151.452Z" fill="#465C69" stroke="#465C69" stroke-width="0.2"/>
<path d="M21.7216 151.251V146.046H26.927V151.251H21.7216Z" fill="#465C69" stroke="#465C69" stroke-width="0.2"/>
<path d="M54.1543 151.251V146.046H59.3597V151.251H54.1543Z" fill="#465C69" stroke="#465C69" stroke-width="0.2"/>
<path d="M70.3699 151.251V146.046H75.5753V151.251H70.3699Z" fill="#465C69" stroke="#465C69" stroke-width="0.2"/>
<path d="M81.181 151.251V146.046H86.3864V151.251H81.181Z" fill="#465C69" stroke="#465C69" stroke-width="0.2"/>
<path d="M97.3974 151.251V146.046H102.603V151.251H97.3974Z" fill="#465C69" stroke="#465C69" stroke-width="0.2"/>
<path d="M108.208 151.251V146.046H113.413V151.251H108.208Z" fill="#465C69" stroke="#465C69" stroke-width="0.2"/>
<path d="M113.614 151.251V146.046H118.819V151.251H113.614Z" fill="#465C69" stroke="#465C69" stroke-width="0.2"/>
<path d="M124.424 151.251V146.046H129.63V151.251H124.424Z" fill="#465C69" stroke="#465C69" stroke-width="0.2"/>
<path d="M129.829 151.251V146.046H135.035V151.251H129.829Z" fill="#465C69" stroke="#465C69" stroke-width="0.2"/>
<path d="M151.452 151.251V146.046H156.657V151.251H151.452Z" fill="#465C69" stroke="#465C69" stroke-width="0.2"/>
<path d="M162.262 151.251V146.046H167.467V151.251H162.262Z" fill="#465C69" stroke="#465C69" stroke-width="0.2"/>
<path d="M167.667 151.251V146.046H172.873V151.251H167.667Z" fill="#465C69" stroke="#465C69" stroke-width="0.2"/>
<path d="M173.073 151.251V146.046H178.279V151.251H173.073Z" fill="#465C69" stroke="#465C69" stroke-width="0.2"/>
<path d="M21.7216 156.657V151.452H26.927V156.657H21.7216Z" fill="#465C69" stroke="#465C69" stroke-width="0.2"/>
<path d="M32.5327 156.657V151.452H37.7381V156.657H32.5327Z" fill="#465C69" stroke="#465C69" stroke-width="0.2"/>
<path d="M37.938 156.657V151.452H43.1434V156.657H37.938Z" fill="#465C69" stroke="#465C69" stroke-width="0.2"/>
<path d="M43.3432 156.657V151.452H48.5486V156.657H43.3432Z" fill="#465C69" stroke="#465C69" stroke-width="0.2"/>
<path d="M54.1543 156.657V151.452H59.3597V156.657H54.1543Z" fill="#465C69" stroke="#465C69" stroke-width="0.2"/>
<path d="M64.9647 156.657V151.452H70.1701V156.657H64.9647Z" fill="#465C69" stroke="#465C69" stroke-width="0.2"/>
<path d="M70.3699 156.657V151.452H75.5753V156.657H70.3699Z" fill="#465C69" stroke="#465C69" stroke-width="0.2"/>
<path d="M81.181 156.657V151.452H86.3864V156.657H81.181Z" fill="#465C69" stroke="#465C69" stroke-width="0.2"/>
<path d="M102.803 156.657V151.452H108.008V156.657H102.803Z" fill="#465C69" stroke="#465C69" stroke-width="0.2"/>
<path d="M113.614 156.657V151.452H118.819V156.657H113.614Z" fill="#465C69" stroke="#465C69" stroke-width="0.2"/>
<path d="M129.829 156.657V151.452H135.035V156.657H129.829Z" fill="#465C69" stroke="#465C69" stroke-width="0.2"/>
<path d="M135.235 156.657V151.452H140.441V156.657H135.235Z" fill="#465C69" stroke="#465C69" stroke-width="0.2"/>
<path d="M140.64 156.657V151.452H145.846V156.657H140.64Z" fill="#465C69" stroke="#465C69" stroke-width="0.2"/>
<path d="M146.046 156.657V151.452H151.251V156.657H146.046Z" fill="#465C69" stroke="#465C69" stroke-width="0.2"/>
<path d="M151.452 156.657V151.452H156.657V156.657H151.452Z" fill="#465C69" stroke="#465C69" stroke-width="0.2"/>
<path d="M156.857 156.657V151.452H162.062V156.657H156.857Z" fill="#465C69" stroke="#465C69" stroke-width="0.2"/>
<path d="M167.667 156.657V151.452H172.873V156.657H167.667Z" fill="#465C69" stroke="#465C69" stroke-width="0.2"/>
<path d="M173.073 156.657V151.452H178.279V156.657H173.073Z" fill="#465C69" stroke="#465C69" stroke-width="0.2"/>
<path d="M21.7216 162.062V156.857H26.927V162.062H21.7216Z" fill="#465C69" stroke="#465C69" stroke-width="0.2"/>
<path d="M32.5327 162.062V156.857H37.7381V162.062H32.5327Z" fill="#465C69" stroke="#465C69" stroke-width="0.2"/>
<path d="M37.938 162.062V156.857H43.1434V162.062H37.938Z" fill="#465C69" stroke="#465C69" stroke-width="0.2"/>
<path d="M43.3432 162.062V156.857H48.5486V162.062H43.3432Z" fill="#465C69" stroke="#465C69" stroke-width="0.2"/>
<path d="M54.1543 162.062V156.857H59.3597V162.062H54.1543Z" fill="#465C69" stroke="#465C69" stroke-width="0.2"/>
<path d="M64.9647 162.062V156.857H70.1701V162.062H64.9647Z" fill="#465C69" stroke="#465C69" stroke-width="0.2"/>
<path d="M70.3699 162.062V156.857H75.5753V162.062H70.3699Z" fill="#465C69" stroke="#465C69" stroke-width="0.2"/>
<path d="M75.7758 162.062V156.857H80.9812V162.062H75.7758Z" fill="#465C69" stroke="#465C69" stroke-width="0.2"/>
<path d="M86.5862 162.062V156.857H91.7916V162.062H86.5862Z" fill="#465C69" stroke="#465C69" stroke-width="0.2"/>
<path d="M91.9922 162.062V156.857H97.1975V162.062H91.9922Z" fill="#465C69" stroke="#465C69" stroke-width="0.2"/>
<path d="M97.3974 162.062V156.857H102.603V162.062H97.3974Z" fill="#465C69" stroke="#465C69" stroke-width="0.2"/>
<path d="M102.803 162.062V156.857H108.008V162.062H102.803Z" fill="#465C69" stroke="#465C69" stroke-width="0.2"/>
<path d="M129.829 162.062V156.857H135.035V162.062H129.829Z" fill="#465C69" stroke="#465C69" stroke-width="0.2"/>
<path d="M156.857 162.062V156.857H162.062V162.062H156.857Z" fill="#465C69" stroke="#465C69" stroke-width="0.2"/>
<path d="M162.262 162.062V156.857H167.467V162.062H162.262Z" fill="#465C69" stroke="#465C69" stroke-width="0.2"/>
<path d="M21.7216 167.467V162.262H26.927V167.467H21.7216Z" fill="#465C69" stroke="#465C69" stroke-width="0.2"/>
<path d="M32.5327 167.467V162.262H37.7381V167.467H32.5327Z" fill="#465C69" stroke="#465C69" stroke-width="0.2"/>
<path d="M37.938 167.467V162.262H43.1434V167.467H37.938Z" fill="#465C69" stroke="#465C69" stroke-width="0.2"/>
<path d="M43.3432 167.467V162.262H48.5486V167.467H43.3432Z" fill="#465C69" stroke="#465C69" stroke-width="0.2"/>
<path d="M54.1543 167.467V162.262H59.3597V167.467H54.1543Z" fill="#465C69" stroke="#465C69" stroke-width="0.2"/>
<path d="M64.9647 167.467V162.262H70.1701V167.467H64.9647Z" fill="#465C69" stroke="#465C69" stroke-width="0.2"/>
<path d="M70.3699 167.467V162.262H75.5753V167.467H70.3699Z" fill="#465C69" stroke="#465C69" stroke-width="0.2"/>
<path d="M91.9922 167.467V162.262H97.1975V167.467H91.9922Z" fill="#465C69" stroke="#465C69" stroke-width="0.2"/>
<path d="M97.3974 167.467V162.262H102.603V167.467H97.3974Z" fill="#465C69" stroke="#465C69" stroke-width="0.2"/>
<path d="M108.208 167.467V162.262H113.413V167.467H108.208Z" fill="#465C69" stroke="#465C69" stroke-width="0.2"/>
<path d="M113.614 167.467V162.262H118.819V167.467H113.614Z" fill="#465C69" stroke="#465C69" stroke-width="0.2"/>
<path d="M129.829 167.467V162.262H135.035V167.467H129.829Z" fill="#465C69" stroke="#465C69" stroke-width="0.2"/>
<path d="M146.046 167.467V162.262H151.251V167.467H146.046Z" fill="#465C69" stroke="#465C69" stroke-width="0.2"/>
<path d="M156.857 167.467V162.262H162.062V167.467H156.857Z" fill="#465C69" stroke="#465C69" stroke-width="0.2"/>
<path d="M167.667 167.467V162.262H172.873V167.467H167.667Z" fill="#465C69" stroke="#465C69" stroke-width="0.2"/>
<path d="M21.7216 172.873V167.667H26.927V172.873H21.7216Z" fill="#465C69" stroke="#465C69" stroke-width="0.2"/>
<path d="M54.1543 172.873V167.667H59.3597V172.873H54.1543Z" fill="#465C69" stroke="#465C69" stroke-width="0.2"/>
<path d="M64.9647 172.873V167.667H70.1701V172.873H64.9647Z" fill="#465C69" stroke="#465C69" stroke-width="0.2"/>
<path d="M86.5862 172.873V167.667H91.7916V172.873H86.5862Z" fill="#465C69" stroke="#465C69" stroke-width="0.2"/>
<path d="M91.9922 172.873V167.667H97.1975V172.873H91.9922Z" fill="#465C69" stroke="#465C69" stroke-width="0.2"/>
<path d="M102.803 172.873V167.667H108.008V172.873H102.803Z" fill="#465C69" stroke="#465C69" stroke-width="0.2"/>
<path d="M119.019 172.873V167.667H124.224V172.873H119.019Z" fill="#465C69" stroke="#465C69" stroke-width="0.2"/>
<path d="M135.235 172.873V167.667H140.441V172.873H135.235Z" fill="#465C69" stroke="#465C69" stroke-width="0.2"/>
<path d="M151.452 172.873V167.667H156.657V172.873H151.452Z" fill="#465C69" stroke="#465C69" stroke-width="0.2"/>
<path d="M156.857 172.873V167.667H162.062V172.873H156.857Z" fill="#465C69" stroke="#465C69" stroke-width="0.2"/>
<path d="M167.667 172.873V167.667H172.873V172.873H167.667Z" fill="#465C69" stroke="#465C69" stroke-width="0.2"/>
<path d="M173.073 172.873V167.667H178.279V172.873H173.073Z" fill="#465C69" stroke="#465C69" stroke-width="0.2"/>
<path d="M21.7216 178.279V173.073H26.927V178.279H21.7216Z" fill="#465C69" stroke="#465C69" stroke-width="0.2"/>
<path d="M27.1268 178.279V173.073H32.3322V178.279H27.1268Z" fill="#465C69" stroke="#465C69" stroke-width="0.2"/>
<path d="M32.5327 178.279V173.073H37.7381V178.279H32.5327Z" fill="#465C69" stroke="#465C69" stroke-width="0.2"/>
<path d="M37.938 178.279V173.073H43.1434V178.279H37.938Z" fill="#465C69" stroke="#465C69" stroke-width="0.2"/>
<path d="M43.3432 178.279V173.073H48.5486V178.279H43.3432Z" fill="#465C69" stroke="#465C69" stroke-width="0.2"/>
<path d="M48.7484 178.279V173.073H53.9538V178.279H48.7484Z" fill="#465C69" stroke="#465C69" stroke-width="0.2"/>
<path d="M54.1543 178.279V173.073H59.3597V178.279H54.1543Z" fill="#465C69" stroke="#465C69" stroke-width="0.2"/>
<path d="M64.9647 178.279V173.073H70.1701V178.279H64.9647Z" fill="#465C69" stroke="#465C69" stroke-width="0.2"/>
<path d="M70.3699 178.279V173.073H75.5753V178.279H70.3699Z" fill="#465C69" stroke="#465C69" stroke-width="0.2"/>
<path d="M75.7758 178.279V173.073H80.9812V178.279H75.7758Z" fill="#465C69" stroke="#465C69" stroke-width="0.2"/>
<path d="M86.5862 178.279V173.073H91.7916V178.279H86.5862Z" fill="#465C69" stroke="#465C69" stroke-width="0.2"/>
<path d="M97.3974 178.279V173.073H102.603V178.279H97.3974Z" fill="#465C69" stroke="#465C69" stroke-width="0.2"/>
<path d="M108.208 178.279V173.073H113.413V178.279H108.208Z" fill="#465C69" stroke="#465C69" stroke-width="0.2"/>
<path d="M113.614 178.279V173.073H118.819V178.279H113.614Z" fill="#465C69" stroke="#465C69" stroke-width="0.2"/>
<path d="M119.019 178.279V173.073H124.224V178.279H119.019Z" fill="#465C69" stroke="#465C69" stroke-width="0.2"/>
<path d="M124.424 178.279V173.073H129.63V178.279H124.424Z" fill="#465C69" stroke="#465C69" stroke-width="0.2"/>
<path d="M135.235 178.279V173.073H140.441V178.279H135.235Z" fill="#465C69" stroke="#465C69" stroke-width="0.2"/>
<path d="M140.64 178.279V173.073H145.846V178.279H140.64Z" fill="#465C69" stroke="#465C69" stroke-width="0.2"/>
<path d="M151.452 178.279V173.073H156.657V178.279H151.452Z" fill="#465C69" stroke="#465C69" stroke-width="0.2"/>
<path d="M162.262 178.279V173.073H167.467V178.279H162.262Z" fill="#465C69" stroke="#465C69" stroke-width="0.2"/>
<path d="M167.667 178.279V173.073H172.873V178.279H167.667Z" fill="#465C69" stroke="#465C69" stroke-width="0.2"/>
</svg>
