<svg width="48" height="48" viewBox="0 0 48 48" fill="none" xmlns="http://www.w3.org/2000/svg">
<path d="M24 0C10.7472 0 0 10.7472 0 24C0 37.2528 10.7472 48 24 48C37.2528 48 48 37.2528 48 24C48 10.7472 37.2528 0 24 0ZM17.0259 36.2812H11.1808V18.6962H17.0259V36.2812ZM14.1035 16.2949H14.0654C12.104 16.2949 10.8354 14.9447 10.8354 13.2572C10.8354 11.5316 12.1428 10.2188 14.1423 10.2188C16.1418 10.2188 17.3723 11.5316 17.4104 13.2572C17.4104 14.9447 16.1418 16.2949 14.1035 16.2949ZM38.1021 36.2812H32.2577V26.8737C32.2577 24.5094 31.4114 22.897 29.2965 22.897C27.6819 22.897 26.7202 23.9846 26.2976 25.0345C26.1431 25.4103 26.1053 25.9354 26.1053 26.4609V36.2812H20.2606C20.2606 36.2812 20.3372 20.3459 20.2606 18.6962H26.1053V21.186C26.8821 19.9878 28.2719 18.2834 31.3729 18.2834C35.2185 18.2834 38.1021 20.7968 38.1021 26.198V36.2812Z" fill="#465C69"/>
</svg>
