<svg width="48" height="48" viewBox="0 0 48 48" fill="none" xmlns="http://www.w3.org/2000/svg">
<path fill-rule="evenodd" clip-rule="evenodd" d="M24 48C37.2548 48 48 37.2548 48 24C48 10.7452 37.2548 0 24 0C10.7452 0 0 10.7452 0 24C0 37.2548 10.7452 48 24 48ZM24.3344 22.653C22.4595 22.653 12.8 17.1754 12.8 17.1754V16.32C12.8 15.2602 13.6602 14.4 14.7219 14.4H33.9469C35.0096 14.4 35.8698 15.2602 35.8698 16.32L35.8544 17.28C35.8544 17.28 26.2995 22.653 24.3344 22.653ZM35.8544 20.16C35.8544 20.16 26.3898 25.293 24.3344 25.293C22.4595 25.293 12.8144 20.16 12.8154 20.16L12.8 31.68C12.8 32.7398 13.6611 33.6 14.7219 33.6H33.9469C35.0096 33.6 35.8698 32.7398 35.8698 31.68L35.8544 20.16Z" fill="#465C69"/>
</svg>
