<?xml version="1.0" encoding="UTF-8" standalone="no"?>
<!-- Uploaded to: SVG Repo, www.svgrepo.com, Generator: SVG Repo Mixer Tools -->

<svg
   width="657.64026"
   height="705.40448"
   viewBox="-10 -5 850.00003 911.73529"
   version="1.1"
   id="svg4"
   sodipodi:docname="mastodon.svg"
   inkscape:version="1.2.2 (b0a84865, 2022-12-01)"
   xmlns:inkscape="http://www.inkscape.org/namespaces/inkscape"
   xmlns:sodipodi="http://sodipodi.sourceforge.net/DTD/sodipodi-0.dtd"
   xmlns="http://www.w3.org/2000/svg"
   xmlns:svg="http://www.w3.org/2000/svg">
  <defs
     id="defs8" />
  <sodipodi:namedview
     id="namedview6"
     pagecolor="#ffffff"
     bordercolor="#000000"
     borderopacity="0.25"
     inkscape:showpageshadow="2"
     inkscape:pageopacity="0.0"
     inkscape:pagecheckerboard="0"
     inkscape:deskcolor="#d1d1d1"
     showgrid="false"
     inkscape:zoom="0.295"
     inkscape:cx="396.61017"
     inkscape:cy="554.23729"
     inkscape:window-width="1269"
     inkscape:window-height="799"
     inkscape:window-x="171"
     inkscape:window-y="25"
     inkscape:window-maximized="0"
     inkscape:current-layer="svg4" />
  <path
     fill="#000000"
     d="M 414,-5 Q 321,-4 248,6 167,17 120,38.999999 l -14,8 q -16,10 -32,25 -22,21 -38,47.000001 -21,33 -32,73 -14,47 -14,103 v 37 q 0,77 1,119 3,113 18,188 19,95 62,154 50,67 134,89 109,29 210,24 46,-3 88,-12 30,-7 55,-17 l 19,-8 -4,-75 -22,6 q -28,6 -57,10 -41,6 -78,4 -53,-1 -80,-7 -43,-8 -67,-30 -29,-25 -35,-72 -2,-14 -2,-29 l 25,6 q 31,6 65,10 48,7 93,9 42,2 92,-2 32,-2 88,-9 56,-7 107,-30 49,-23 81.5,-54.5 Q 816,574 822,542 q 9,-45 13,-109 4,-46 5,-97 v -41 q 0,-56 -14,-103 -11,-40 -32,-73 -16,-26.000001 -38,-47.000001 -15,-15 -32,-25 -12,-8 -14,-8 Q 664,17 583,6 509,-4 417,-5 Z M 282,150 q 73,0 109,56 l 24,39 24,-39 q 36,-56 109,-56 63,0 101,43 38,43 38,117 V 549 H 592 V 317 q 0,-74 -61,-74 -69,0 -69,88 V 458 H 368 V 331 q 0,-88 -69,-88 -61,0 -61,74 V 549 H 143 V 310 q 0,-74 38,-117 38,-43 101,-43 z"
     id="path2"
     style="fill:#465c69;fill-opacity:1" />
</svg>
