<?xml version="1.0" encoding="UTF-8" standalone="no"?>
<!-- Generator: Adobe Illustrator 18.0.0, SVG Export Plug-In . SVG Version: 6.00 Build 0)  -->

<svg
   version="1.1"
   id="Capa_1"
   x="0px"
   y="0px"
   viewBox="0 0 297 297"
   style="enable-background:new 0 0 297 297;"
   xml:space="preserve"
   sodipodi:docname="nb.svg"
   inkscape:version="1.2.1 (9c6d41e410, 2022-07-14)"
   xmlns:inkscape="http://www.inkscape.org/namespaces/inkscape"
   xmlns:sodipodi="http://sodipodi.sourceforge.net/DTD/sodipodi-0.dtd"
   xmlns="http://www.w3.org/2000/svg"
   xmlns:svg="http://www.w3.org/2000/svg"><defs
   id="defs43" /><sodipodi:namedview
   id="namedview41"
   pagecolor="#ffffff"
   bordercolor="#000000"
   borderopacity="0.25"
   inkscape:showpageshadow="2"
   inkscape:pageopacity="0.0"
   inkscape:pagecheckerboard="0"
   inkscape:deskcolor="#d1d1d1"
   showgrid="false"
   inkscape:zoom="3.4579125"
   inkscape:cx="148.5"
   inkscape:cy="171.49075"
   inkscape:window-width="2560"
   inkscape:window-height="1421"
   inkscape:window-x="0"
   inkscape:window-y="19"
   inkscape:window-maximized="1"
   inkscape:current-layer="Capa_1" />
<g
   id="g8"
   style="fill:#465c69;fill-opacity:1">
	<path
   d="M277.915,0H36.341c-5.775,0-10.458,4.683-10.458,10.458v24.053h-6.798c-5.775,0-10.457,4.683-10.457,10.458   c0,5.774,4.682,10.457,10.457,10.457h6.798v13.596h-6.798c-5.775,0-10.457,4.682-10.457,10.457s4.682,10.458,10.457,10.458h6.798   v13.595h-6.798c-5.775,0-10.457,4.683-10.457,10.458c0,5.775,4.682,10.458,10.457,10.458h6.798v13.595h-6.798   c-5.775,0-10.457,4.683-10.457,10.458s4.682,10.458,10.457,10.458h6.798v13.595h-6.798c-5.775,0-10.457,4.683-10.457,10.458   c0,5.775,4.682,10.458,10.457,10.458h6.798v13.595h-6.798c-5.775,0-10.457,4.683-10.457,10.458s4.682,10.457,10.457,10.457h6.798   v13.596h-6.798c-5.775,0-10.457,4.682-10.457,10.457c0,5.775,4.682,10.458,10.457,10.458h6.798v24.053   c0,5.775,4.683,10.458,10.458,10.458h241.574c5.775,0,10.457-4.683,10.457-10.458V10.458C288.372,4.683,283.69,0,277.915,0z    M267.457,276.084H46.798v-13.595h6.798c5.775,0,10.458-4.683,10.458-10.458c0-5.775-4.683-10.457-10.458-10.457h-6.798v-13.596   h6.798c5.775,0,10.458-4.682,10.458-10.457s-4.683-10.458-10.458-10.458h-6.798v-13.595h6.798c5.775,0,10.458-4.683,10.458-10.458   c0-5.775-4.683-10.458-10.458-10.458h-6.798v-13.595h6.798c5.775,0,10.458-4.683,10.458-10.458s-4.683-10.458-10.458-10.458h-6.798   v-13.595h6.798c5.775,0,10.458-4.683,10.458-10.458c0-5.775-4.683-10.458-10.458-10.458h-6.798V89.937h6.798   c5.775,0,10.458-4.683,10.458-10.458s-4.683-10.457-10.458-10.457h-6.798V55.426h6.798c5.775,0,10.458-4.683,10.458-10.457   c0-5.775-4.683-10.458-10.458-10.458h-6.798V20.916h220.659V276.084z"
   id="path2"
   style="fill:#465c69;fill-opacity:1" />
	<path
   d="M105.362,141.702h120.786c5.775,0,10.458-4.683,10.458-10.458v-69.02c0-5.775-4.683-10.458-10.458-10.458H105.362   c-5.775,0-10.458,4.683-10.458,10.458v69.02C94.904,137.02,99.587,141.702,105.362,141.702z M115.819,72.682h99.872v48.105h-99.872   V72.682z"
   id="path4"
   style="fill:#465c69;fill-opacity:1" />
	<path
   d="M105.362,210.724h120.786c5.775,0,10.458-4.683,10.458-10.458c0-5.775-4.683-10.457-10.458-10.457H105.362   c-5.775,0-10.458,4.682-10.458,10.457C94.904,206.041,99.587,210.724,105.362,210.724z"
   id="path6"
   style="fill:#465c69;fill-opacity:1" />
</g>
<g
   id="g10">
</g>
<g
   id="g12">
</g>
<g
   id="g14">
</g>
<g
   id="g16">
</g>
<g
   id="g18">
</g>
<g
   id="g20">
</g>
<g
   id="g22">
</g>
<g
   id="g24">
</g>
<g
   id="g26">
</g>
<g
   id="g28">
</g>
<g
   id="g30">
</g>
<g
   id="g32">
</g>
<g
   id="g34">
</g>
<g
   id="g36">
</g>
<g
   id="g38">
</g>
</svg>
