<?xml version="1.0" encoding="UTF-8" standalone="no"?>
<svg
   width="48"
   height="48"
   viewBox="0 0 48 48"
   fill="none"
   version="1.1"
   id="svg22"
   sodipodi:docname="post.svg"
   inkscape:version="1.2.2 (b0a84865, 2022-12-01)"
   xmlns:inkscape="http://www.inkscape.org/namespaces/inkscape"
   xmlns:sodipodi="http://sodipodi.sourceforge.net/DTD/sodipodi-0.dtd"
   xmlns="http://www.w3.org/2000/svg"
   xmlns:svg="http://www.w3.org/2000/svg">
  <defs
     id="defs26" />
  <sodipodi:namedview
     id="namedview24"
     pagecolor="#ffffff"
     bordercolor="#000000"
     borderopacity="0.25"
     inkscape:showpageshadow="2"
     inkscape:pageopacity="0.0"
     inkscape:pagecheckerboard="0"
     inkscape:deskcolor="#d1d1d1"
     showgrid="false"
     inkscape:zoom="4.9166667"
     inkscape:cx="24"
     inkscape:cy="24"
     inkscape:window-width="1309"
     inkscape:window-height="456"
     inkscape:window-x="0"
     inkscape:window-y="25"
     inkscape:window-maximized="0"
     inkscape:current-layer="svg22" />
  <path
     d="M0.5 23.9991C0.5 11.0222 11.0218 0.5 24 0.5C36.9773 0.5 47.5 11.0223 47.5 23.9991C47.5 36.9783 36.9773 47.5 24 47.5C11.0218 47.5 0.5 36.9783 0.5 23.9991Z"
     fill="white"
     stroke="#465C69"
     id="path2"
     style="fill:none" />
  <path
     d="M37.0486 13.2281C37.0486 14.5265 35.5116 15.1996 33.7102 15.1996C31.9087 15.1996 30.5241 14.5265 30.5241 13.2281C30.5241 11.9287 31.9847 10.8759 33.7861 10.8759C35.588 10.8759 37.0486 11.9287 37.0486 13.2281Z"
     fill="#465C69"
     id="path4" />
  <path
     d="M13.1897 37.2C11.9348 37.2 10.9139 36.1791 10.9139 34.9242C10.9139 33.6694 11.9348 32.6484 13.1897 32.6484H28.1049L27.4256 33.4069C27.0511 33.8255 26.8449 34.3645 26.8449 34.9242C26.8449 35.4839 27.0511 36.023 27.4256 36.4411L28.1049 37.2H13.1897Z"
     fill="#465C69"
     id="path6" />
  <path
     d="M36.7969 11.1548C36.2775 10.6242 35.5533 10.32 34.8103 10.32H18.3103C16.5816 10.32 14.655 11.6855 14.655 13.6444V32.1684H13.1897C11.67 32.1684 10.4339 33.4045 10.4339 34.9242C10.4339 36.4439 11.67 37.68 13.1897 37.68H28.335H29.1206H29.6897C31.4363 37.68 32.9114 36.053 32.9114 34.1273V15.8166C32.9339 15.8203 32.9541 15.8311 32.9775 15.8315C33.1444 15.8358 33.3057 15.8376 33.4613 15.8376C35.1961 15.8376 36.2246 15.5714 36.8546 14.97C37.3154 14.5298 37.5483 13.9139 37.5661 13.0861C37.5816 12.3637 37.3083 11.678 36.7969 11.1548ZM27.0319 36.72H13.1897C12.1997 36.72 11.3939 35.9142 11.3939 34.9242C11.3939 33.9342 12.1997 33.1284 13.1897 33.1284H27.0319C26.6161 33.6112 26.3649 34.2389 26.3649 34.9242C26.3649 35.6095 26.6161 36.2372 27.0319 36.72ZM31.9514 34.1273C31.9514 35.3794 31.0425 36.72 29.6897 36.72H29.1206C28.1306 36.72 27.3249 35.9142 27.3249 34.9242C27.3249 33.9342 28.1306 33.1284 29.1206 33.1284C29.386 33.1284 29.6007 32.9138 29.6007 32.6484C29.6007 32.3831 29.386 32.1684 29.1206 32.1684H15.615V13.6444C15.615 12.3126 17.0639 11.28 18.3103 11.28H32.6621C32.2219 11.7666 31.9514 12.397 31.9514 13.0758V34.1273ZM36.1918 14.2753C35.7202 14.7258 34.7081 14.9189 33.0019 14.8716C32.9691 14.872 32.9419 14.8837 32.9114 14.8889V13.0758C32.9114 12.119 33.7988 11.28 34.8103 11.28C35.2969 11.28 35.7708 11.4792 36.1107 11.8266C36.4402 12.1631 36.6165 12.6033 36.6062 13.0655C36.594 13.6326 36.4622 14.017 36.1918 14.2753Z"
     fill="#465C69"
     id="path10" />
  <path
     d="M29.115 20H18.885C18.3958 20 18 20.2236 18 20.5C18 20.7764 18.3958 21 18.885 21H29.115C29.6042 21 30 20.7764 30 20.5C30 20.2236 29.6042 20 29.115 20Z"
     fill="#465C69"
     id="path12" />
  <path
     d="M29.115 17H18.885C18.3958 17 18 17.2236 18 17.5C18 17.7764 18.3958 18 18.885 18H29.115C29.6042 18 30 17.7764 30 17.5C30 17.2236 29.6042 17 29.115 17Z"
     fill="#465C69"
     id="path14" />
  <path
     d="M29.2453 23.0648H18.3211C18.0558 23.0648 17.8411 23.2795 17.8411 23.5449C17.8411 23.8102 18.0558 24.0248 18.3211 24.0248H29.2453C29.5106 24.0248 29.7253 23.8102 29.7253 23.5449C29.7253 23.2795 29.5106 23.0648 29.2453 23.0648Z"
     fill="#465C69"
     id="path16" />
  <path
     d="M29.2453 25.7958H18.3211C18.0558 25.7958 17.8411 26.0105 17.8411 26.2758C17.8411 26.5411 18.0558 26.7558 18.3211 26.7558H29.2453C29.5106 26.7558 29.7253 26.5411 29.7253 26.2758C29.7253 26.0105 29.5106 25.7958 29.2453 25.7958Z"
     fill="#465C69"
     id="path18" />
  <path
     d="M29.2453 28.5267H18.3211C18.0558 28.5267 17.8411 28.7414 17.8411 29.0067C17.8411 29.272 18.0558 29.4867 18.3211 29.4867H29.2453C29.5106 29.4867 29.7253 29.272 29.7253 29.0067C29.7253 28.7414 29.5106 28.5267 29.2453 28.5267Z"
     fill="#465C69"
     id="path20" />
</svg>
