<svg width="14" height="14" viewBox="0 0 14 14" fill="none" xmlns="http://www.w3.org/2000/svg">
<path d="M12.6875 7H10.5V5.25C10.5 4.28477 11.2848 3.5 12.25 3.5H12.4688C12.8324 3.5 13.125 3.20742 13.125 2.84375V1.53125C13.125 1.16758 12.8324 0.875 12.4688 0.875H12.25C9.83281 0.875 7.875 2.83281 7.875 5.25V11.8125C7.875 12.5371 8.46289 13.125 9.1875 13.125H12.6875C13.4121 13.125 14 12.5371 14 11.8125V8.3125C14 7.58789 13.4121 7 12.6875 7ZM4.8125 7H2.625V5.25C2.625 4.28477 3.40977 3.5 4.375 3.5H4.59375C4.95742 3.5 5.25 3.20742 5.25 2.84375V1.53125C5.25 1.16758 4.95742 0.875 4.59375 0.875H4.375C1.95781 0.875 0 2.83281 0 5.25V11.8125C0 12.5371 0.587891 13.125 1.3125 13.125H4.8125C5.53711 13.125 6.125 12.5371 6.125 11.8125V8.3125C6.125 7.58789 5.53711 7 4.8125 7Z" fill="#465C69"/>
</svg>
