<svg width="48" height="48" viewBox="0 0 48 48" fill="none" xmlns="http://www.w3.org/2000/svg">
<path d="M24.0005 0C10.7458 0 0 10.7441 0 23.999C0 37.254 10.7458 48 24.0005 48C37.2542 48 48 37.254 48 23.999C48 10.7441 37.2543 0 24.0005 0ZM20.5738 16.9241L30.8938 23.0111L29.5938 25.2149L19.2732 19.1277L20.5738 16.9241ZM17.8131 22.8277L29.3834 25.9381L28.7193 28.4094L17.1484 25.299L17.8131 22.8277ZM16.6659 28.1782L28.5962 29.2775L28.3616 31.8251L16.4309 30.7266L16.6659 28.1782ZM28.3067 32.5586L28.3083 35.1178L16.3264 35.1233L16.3252 32.5644L28.3067 32.5586ZM32.3894 38.5716C32.3894 38.5716 32.3894 39.1693 32.3693 39.1693V39.1791H13.1987C13.1987 39.1791 12.6013 39.1791 12.6013 39.1693H12.5809V26.6999H14.6277V37.1615H30.3428V26.6999H32.3896V38.5716H32.3894ZM31.3103 22.6598L24.5594 12.7611L26.6738 11.3193L33.4242 21.2188L31.3103 22.6598ZM33.8826 21.0632L31.8334 9.25854L34.3547 8.82094L36.4044 20.6257L33.8826 21.0632Z" fill="#465C69"/>
</svg>
